<svg width="21" height="20" viewBox="0 0 21 20" fill="none" xmlns="http://www.w3.org/2000/svg">
<path d="M0.365234 16.9961V4.75244C0.365234 4.11605 0.520182 3.63737 0.830078 3.31641C1.14551 2.99544 1.62142 2.83496 2.25781 2.83496H3.30371C3.9401 2.83496 4.41325 2.99544 4.72314 3.31641C5.03304 3.63737 5.18799 4.11605 5.18799 4.75244V5.74854C5.39274 5.69873 5.60579 5.67383 5.82715 5.67383H9.44629C9.66764 5.67383 9.87793 5.69873 10.0771 5.74854V2.45312C10.0771 1.81673 10.2321 1.33805 10.542 1.01709C10.8574 0.696126 11.3333 0.535645 11.9697 0.535645H13.5967C14.2331 0.535645 14.7062 0.696126 15.0161 1.01709C15.3315 1.33805 15.4893 1.81673 15.4893 2.45312V16.9961C15.4893 17.6325 15.3315 18.1084 15.0161 18.4238C14.7062 18.7448 14.2331 18.9053 13.5967 18.9053H2.25781C1.62142 18.9053 1.14551 18.7448 0.830078 18.4238C0.520182 18.1084 0.365234 17.6325 0.365234 16.9961ZM1.61865 16.8965C1.61865 17.1455 1.68229 17.3337 1.80957 17.4609C1.93685 17.5882 2.13053 17.6519 2.39062 17.6519H3.93457V4.84375C3.93457 4.60026 3.87093 4.41488 3.74365 4.2876C3.62191 4.15479 3.43099 4.08838 3.1709 4.08838H2.39062C2.13053 4.08838 1.93685 4.15479 1.80957 4.2876C1.68229 4.41488 1.61865 4.60026 1.61865 4.84375V16.8965ZM5.18799 17.6519H10.0771V7.68262C10.0771 7.43913 10.0135 7.25374 9.88623 7.12646C9.76449 6.99365 9.57357 6.92725 9.31348 6.92725H5.95996C5.7054 6.92725 5.51172 6.99365 5.37891 7.12646C5.25163 7.25374 5.18799 7.43913 5.18799 7.68262V17.6519ZM11.3306 17.6519H13.4639C13.724 17.6519 13.9176 17.5882 14.0449 17.4609C14.1722 17.3337 14.2358 17.1455 14.2358 16.8965V2.54443C14.2358 2.30094 14.1722 2.11556 14.0449 1.98828C13.9176 1.85547 13.724 1.78906 13.4639 1.78906H12.1025C11.848 1.78906 11.6543 1.85547 11.5215 1.98828C11.3942 2.11556 11.3306 2.30094 11.3306 2.54443V17.6519ZM5.94336 8.5376C5.94336 8.39372 5.9904 8.27474 6.08447 8.18066C6.18408 8.08105 6.31136 8.03125 6.46631 8.03125H8.82373C8.97314 8.03125 9.09489 8.08105 9.18896 8.18066C9.28857 8.27474 9.33838 8.39372 9.33838 8.5376C9.33838 8.68148 9.28857 8.80322 9.18896 8.90283C9.09489 9.00244 8.97314 9.05225 8.82373 9.05225H6.46631C6.31136 9.05225 6.18408 9.00244 6.08447 8.90283C5.9904 8.80322 5.94336 8.68148 5.94336 8.5376ZM5.94336 16.0415C5.94336 15.8976 5.9904 15.7786 6.08447 15.6846C6.18408 15.585 6.31136 15.5352 6.46631 15.5352H8.82373C8.97314 15.5352 9.09489 15.585 9.18896 15.6846C9.28857 15.7786 9.33838 15.8976 9.33838 16.0415C9.33838 16.1854 9.28857 16.3071 9.18896 16.4067C9.09489 16.5063 8.97314 16.5562 8.82373 16.5562H6.46631C6.31136 16.5562 6.18408 16.5063 6.08447 16.4067C5.9904 16.3071 5.94336 16.1854 5.94336 16.0415ZM16.2363 17.2285L14.8003 4.81885C14.7228 4.18799 14.8197 3.70101 15.0908 3.35791C15.362 3.01481 15.8185 2.79899 16.4604 2.71045L17.3237 2.59424C17.9601 2.50016 18.4499 2.59977 18.793 2.89307C19.1416 3.18083 19.3519 3.64014 19.4238 4.271L20.8516 16.6807C20.9235 17.3115 20.8239 17.7985 20.5527 18.1416C20.2871 18.4847 19.8361 18.7005 19.1997 18.7891L18.3364 18.9053C17.7 18.9938 17.2103 18.8942 16.8672 18.6064C16.5241 18.3187 16.3138 17.8594 16.2363 17.2285ZM17.4648 16.9795C17.4925 17.2285 17.5755 17.4111 17.7139 17.5273C17.8577 17.6436 18.057 17.6823 18.3115 17.6436L18.9258 17.5605C19.1803 17.5273 19.363 17.4416 19.4736 17.3032C19.5843 17.1649 19.6258 16.9712 19.5981 16.7222L18.1953 4.51172C18.1676 4.27376 18.0819 4.09668 17.938 3.98047C17.7941 3.85872 17.5949 3.81722 17.3403 3.85596L16.7427 3.93066C16.4826 3.9694 16.2972 4.05794 16.1865 4.19629C16.0758 4.33464 16.0343 4.52555 16.062 4.76904L17.4648 16.9795Z" fill="#EBDA17"/>
</svg>
