<svg width="23" height="22" viewBox="0 0 23 22" fill="none" xmlns="http://www.w3.org/2000/svg">
<path d="M11.6167 11.8623C11.2625 11.8678 10.9001 11.8236 10.5293 11.7295C10.1641 11.6354 9.76009 11.4888 9.31738 11.2896L1.14941 7.5542C0.878255 7.43245 0.673503 7.2609 0.535156 7.03955C0.402344 6.81266 0.335938 6.57471 0.335938 6.32568C0.335938 6.08219 0.402344 5.84977 0.535156 5.62842C0.673503 5.40153 0.878255 5.22721 1.14941 5.10547L9.31738 1.37012C9.76009 1.1709 10.1641 1.02425 10.5293 0.930176C10.9001 0.8361 11.2625 0.791829 11.6167 0.797363C11.9709 0.791829 12.3306 0.8361 12.6958 0.930176C13.0666 1.02425 13.4733 1.1709 13.916 1.37012L22.0923 5.10547C22.3634 5.22721 22.5654 5.40153 22.6982 5.62842C22.8366 5.84977 22.9058 6.08219 22.9058 6.32568C22.9058 6.57471 22.8366 6.81266 22.6982 7.03955C22.5654 7.2609 22.3634 7.43245 22.0923 7.5542L13.916 11.2896C13.4733 11.4888 13.0666 11.6354 12.6958 11.7295C12.3306 11.8236 11.9709 11.8678 11.6167 11.8623ZM11.6167 10.5508C11.8934 10.5508 12.1729 10.5148 12.4551 10.4429C12.7428 10.3654 13.0638 10.2464 13.418 10.0859L21.063 6.60791C21.2069 6.5415 21.2788 6.44743 21.2788 6.32568C21.2788 6.20947 21.2069 6.11816 21.063 6.05176L13.418 2.57373C13.0638 2.41325 12.7428 2.29704 12.4551 2.2251C12.1729 2.14762 11.8934 2.10889 11.6167 2.10889C11.34 2.10889 11.0605 2.14762 10.7783 2.2251C10.4961 2.29704 10.1779 2.41325 9.82373 2.57373L2.17871 6.05176C2.03483 6.11816 1.96289 6.20947 1.96289 6.32568C1.96289 6.44743 2.03483 6.5415 2.17871 6.60791L9.82373 10.0859C10.1779 10.2464 10.4961 10.3654 10.7783 10.4429C11.0605 10.5148 11.34 10.5508 11.6167 10.5508ZM3.57324 12.5679V8.18506H4.90967V12.5679C4.90967 12.9995 5.06462 13.4146 5.37451 13.813C5.68994 14.2114 6.14095 14.5684 6.72754 14.8838C7.31413 15.1937 8.01969 15.4399 8.84424 15.6226C9.67432 15.8052 10.5985 15.8965 11.6167 15.8965C12.6405 15.8965 13.5646 15.8052 14.3892 15.6226C15.2137 15.4399 15.9193 15.1937 16.5059 14.8838C17.0924 14.5684 17.5435 14.2114 17.8589 13.813C18.1743 13.4146 18.332 12.9995 18.332 12.5679V8.18506H19.6685V12.5679C19.6685 13.1877 19.4775 13.7743 19.0957 14.3276C18.7194 14.881 18.1799 15.368 17.4771 15.7886C16.7743 16.2147 15.9276 16.5467 14.937 16.7847C13.9465 17.0282 12.8397 17.1499 11.6167 17.1499C10.3937 17.1499 9.28695 17.0282 8.29639 16.7847C7.31136 16.5467 6.46468 16.2147 5.75635 15.7886C5.05355 15.368 4.514 14.881 4.1377 14.3276C3.76139 13.7743 3.57324 13.1877 3.57324 12.5679ZM11.6499 7.27197C11.3566 7.27197 11.0744 7.23047 10.8032 7.14746C10.5321 7.06445 10.3107 6.95378 10.1392 6.81543C9.96761 6.67155 9.88184 6.5083 9.88184 6.32568C9.88184 6.1486 9.96761 5.99089 10.1392 5.85254C10.3107 5.71419 10.5321 5.60628 10.8032 5.52881C11.0744 5.4458 11.3566 5.4043 11.6499 5.4043C11.9487 5.4043 12.231 5.4458 12.4966 5.52881C12.7677 5.60628 12.9863 5.71419 13.1523 5.85254C13.3239 5.99089 13.4097 6.1486 13.4097 6.32568C13.4097 6.5083 13.3239 6.67155 13.1523 6.81543C12.9863 6.95378 12.7677 7.06445 12.4966 7.14746C12.231 7.23047 11.9487 7.27197 11.6499 7.27197ZM6.60303 9.46338L5.52393 8.89062L11.0688 6.00195L11.5254 6.85693L6.60303 9.46338ZM5.52393 17.6064V8.93213L6.60303 9.46338V17.6064H5.52393ZM4.86816 17.7725C4.86816 17.446 4.96501 17.1831 5.15869 16.9839C5.35791 16.7902 5.62077 16.6934 5.94727 16.6934H6.17139C6.49788 16.6934 6.75798 16.7902 6.95166 16.9839C7.15088 17.1831 7.25049 17.446 7.25049 17.7725V19.9556C7.25049 20.2821 7.15088 20.5422 6.95166 20.7358C6.75798 20.9351 6.49788 21.0347 6.17139 21.0347H5.94727C5.62077 21.0347 5.35791 20.9351 5.15869 20.7358C4.96501 20.5422 4.86816 20.2821 4.86816 19.9556V17.7725Z" fill="#EBDA17"/>
</svg>
