<svg width="19" height="18" viewBox="0 0 19 18" fill="none" xmlns="http://www.w3.org/2000/svg">
<path d="M8.78662 17.8804C8.46566 17.8804 8.18896 17.7891 7.95654 17.6064C7.72965 17.4294 7.58024 17.1859 7.5083 16.876L7.14307 15.3237L6.87744 15.2324L5.53271 16.0625C5.26156 16.234 4.97933 16.3005 4.68604 16.2617C4.39274 16.223 4.13265 16.0902 3.90576 15.8633L2.75195 14.7095C2.51953 14.4826 2.38395 14.2225 2.34521 13.9292C2.31201 13.6359 2.38118 13.3564 2.55273 13.0908L3.39111 11.7461L3.2998 11.4971L1.74756 11.1318C1.4432 11.0599 1.19971 10.9077 1.01709 10.6753C0.834473 10.4429 0.743164 10.1689 0.743164 9.85352V8.20996C0.743164 7.89453 0.831706 7.62061 1.00879 7.38818C1.19141 7.15576 1.43766 7.00358 1.74756 6.93164L3.2832 6.55811L3.38281 6.29248L2.54443 4.94775C2.37288 4.68213 2.30371 4.40544 2.33691 4.11768C2.37565 3.82438 2.51123 3.56152 2.74365 3.3291L3.89746 2.16699C4.12435 1.94564 4.38167 1.81559 4.66943 1.77686C4.96273 1.73812 5.24495 1.80176 5.51611 1.96777L6.86084 2.79785L7.14307 2.68994L7.5083 1.1377C7.58024 0.833333 7.72965 0.589844 7.95654 0.407227C8.18896 0.224609 8.46566 0.133301 8.78662 0.133301H10.4634C10.7843 0.133301 11.0583 0.224609 11.2852 0.407227C11.5176 0.589844 11.6698 0.833333 11.7417 1.1377L12.0986 2.68994L12.3809 2.79785L13.7339 1.96777C13.9995 1.80176 14.279 1.73812 14.5723 1.77686C14.8656 1.81559 15.1229 1.94564 15.3442 2.16699L16.5063 3.3291C16.7332 3.56152 16.866 3.82438 16.9048 4.11768C16.9435 4.40544 16.8771 4.68213 16.7056 4.94775L15.8589 6.29248L15.9668 6.55811L17.5024 6.93164C17.8068 7.00358 18.0503 7.15576 18.2329 7.38818C18.4155 7.62061 18.5068 7.89453 18.5068 8.20996V9.85352C18.5068 10.1689 18.4155 10.4429 18.2329 10.6753C18.0503 10.9077 17.8068 11.0599 17.5024 11.1318L15.9502 11.4971L15.8506 11.7461L16.6973 13.0908C16.8688 13.3564 16.9352 13.6359 16.8965 13.9292C16.8577 14.2225 16.7249 14.4826 16.498 14.7095L15.3359 15.8633C15.109 16.0902 14.849 16.223 14.5557 16.2617C14.2624 16.3005 13.9829 16.234 13.7173 16.0625L12.3643 15.2324L12.0986 15.3237L11.7417 16.876C11.6698 17.1859 11.5176 17.4294 11.2852 17.6064C11.0583 17.7891 10.7843 17.8804 10.4634 17.8804H8.78662ZM8.91943 16.5854H10.3306C10.4689 16.5854 10.5464 16.5218 10.563 16.3945L11.0693 14.3359C11.3239 14.2751 11.5646 14.1976 11.7915 14.1035C12.0184 14.0039 12.2204 13.8988 12.3975 13.7881L14.207 14.9004C14.3122 14.9723 14.4173 14.9585 14.5225 14.8589L15.4937 13.8794C15.5877 13.7964 15.5988 13.694 15.5269 13.5723L14.4146 11.7793C14.5142 11.6022 14.611 11.4002 14.7051 11.1733C14.8047 10.9465 14.8877 10.7057 14.9541 10.4512L17.021 9.96143C17.1483 9.93929 17.2119 9.85905 17.2119 9.7207V8.33447C17.2119 8.20166 17.1483 8.12142 17.021 8.09375L14.9624 7.5957C14.896 7.32454 14.8102 7.07275 14.7051 6.84033C14.5999 6.60791 14.5086 6.41423 14.4312 6.25928L15.5352 4.46631C15.6126 4.34456 15.6043 4.23665 15.5103 4.14258L14.5308 3.17969C14.4312 3.09115 14.3232 3.07731 14.207 3.13818L12.4058 4.23389C12.2231 4.13428 12.0184 4.03743 11.7915 3.94336C11.5701 3.84375 11.3294 3.76074 11.0693 3.69434L10.563 1.61914C10.5464 1.49186 10.4689 1.42822 10.3306 1.42822H8.91943C8.78109 1.42822 8.70085 1.49186 8.67871 1.61914L8.18896 3.67773C7.93994 3.74414 7.69368 3.82715 7.4502 3.92676C7.21224 4.02637 7.00472 4.12598 6.82764 4.22559L5.03467 3.13818C4.92399 3.07731 4.81885 3.09115 4.71924 3.17969L3.73145 4.14258C3.6429 4.23665 3.6346 4.34456 3.70654 4.46631L4.81055 6.25928C4.73861 6.41423 4.6473 6.60791 4.53662 6.84033C4.43148 7.07275 4.3457 7.32454 4.2793 7.5957L2.229 8.09375C2.10173 8.12142 2.03809 8.20166 2.03809 8.33447V9.7207C2.03809 9.85905 2.10173 9.93929 2.229 9.96143L4.2876 10.4512C4.354 10.7057 4.43701 10.9465 4.53662 11.1733C4.63623 11.4002 4.73307 11.6022 4.82715 11.7793L3.71484 13.5723C3.64844 13.694 3.65951 13.7964 3.74805 13.8794L4.72754 14.8589C4.83268 14.9585 4.93506 14.9723 5.03467 14.9004L6.84424 13.7881C7.02132 13.8988 7.22331 14.0039 7.4502 14.1035C7.68262 14.1976 7.92611 14.2751 8.18066 14.3359L8.67871 16.3945C8.70085 16.5218 8.78109 16.5854 8.91943 16.5854ZM9.625 12.1777C9.04395 12.1777 8.5127 12.0339 8.03125 11.7461C7.55534 11.4583 7.1735 11.0765 6.88574 10.6006C6.59798 10.1191 6.4541 9.58789 6.4541 9.00684C6.4541 8.43132 6.59798 7.9056 6.88574 7.42969C7.1735 6.94824 7.55534 6.56641 8.03125 6.28418C8.5127 5.99642 9.04395 5.85254 9.625 5.85254C10.2061 5.85254 10.7345 5.99642 11.2104 6.28418C11.6919 6.56641 12.0737 6.94824 12.356 7.42969C12.6437 7.9056 12.7876 8.43132 12.7876 9.00684C12.7876 9.58789 12.6437 10.1191 12.356 10.6006C12.0737 11.082 11.6919 11.4666 11.2104 11.7544C10.7345 12.0366 10.2061 12.1777 9.625 12.1777ZM9.625 10.8911C9.96257 10.8911 10.2725 10.8053 10.5547 10.6338C10.8369 10.4622 11.061 10.2354 11.2271 9.95312C11.3986 9.66536 11.4844 9.34993 11.4844 9.00684C11.4844 8.66374 11.3986 8.35107 11.2271 8.06885C11.061 7.78662 10.8369 7.5625 10.5547 7.39648C10.2725 7.22493 9.96257 7.13916 9.625 7.13916C9.2819 7.13916 8.96647 7.22493 8.67871 7.39648C8.39648 7.5625 8.1696 7.78662 7.99805 8.06885C7.83203 8.35107 7.74902 8.66374 7.74902 9.00684C7.74902 9.35547 7.83203 9.67367 7.99805 9.96143C8.1696 10.2437 8.39648 10.4705 8.67871 10.6421C8.96647 10.8081 9.2819 10.8911 9.625 10.8911Z" fill="#EBDA17"/>
</svg>
