<svg width="20" height="16" viewBox="0 0 20 16" fill="none" xmlns="http://www.w3.org/2000/svg">
<path d="M4.09863 12.1987C3.85514 12.1987 3.65869 12.124 3.50928 11.9746C3.35986 11.8252 3.28516 11.6343 3.28516 11.4019V9.86621C3.28516 9.62826 3.35986 9.43734 3.50928 9.29346C3.65869 9.14404 3.85514 9.06934 4.09863 9.06934H6.13232C6.37581 9.06934 6.57227 9.14404 6.72168 9.29346C6.87109 9.43734 6.9458 9.62826 6.9458 9.86621V11.4019C6.9458 11.6343 6.87109 11.8252 6.72168 11.9746C6.57227 12.124 6.37581 12.1987 6.13232 12.1987H4.09863ZM1.04395 6.11426V4.22998H19.2144V6.11426H1.04395ZM2.97803 15.104C2.10921 15.104 1.45622 14.8882 1.01904 14.4565C0.587402 14.0304 0.371582 13.3913 0.371582 12.5391V3.49951C0.371582 2.64176 0.587402 1.99984 1.01904 1.57373C1.45622 1.14209 2.10921 0.92627 2.97803 0.92627H17.272C18.1408 0.92627 18.791 1.14209 19.2227 1.57373C19.6598 2.00537 19.8784 2.6473 19.8784 3.49951V12.5391C19.8784 13.3913 19.6598 14.0304 19.2227 14.4565C18.791 14.8882 18.1408 15.104 17.272 15.104H2.97803ZM2.99463 13.7676H17.2554C17.6649 13.7676 17.9803 13.6597 18.2017 13.4438C18.4285 13.2225 18.542 12.896 18.542 12.4644V3.57422C18.542 3.14258 18.4285 2.81608 18.2017 2.59473C17.9803 2.37337 17.6649 2.2627 17.2554 2.2627H2.99463C2.57959 2.2627 2.26139 2.37337 2.04004 2.59473C1.81868 2.81608 1.70801 3.14258 1.70801 3.57422V12.4644C1.70801 12.896 1.81868 13.2225 2.04004 13.4438C2.26139 13.6597 2.57959 13.7676 2.99463 13.7676Z" fill="#EBDA17"/>
</svg>
